<svg xmlns="http://www.w3.org/2000/svg" xmlns:xlink="http://www.w3.org/1999/xlink" width="300" zoomAndPan="magnify" viewBox="0 0 224.87999 225" height="300" preserveAspectRatio="xMidYMid meet" version="1.0"><defs><clipPath id="id1"><path d="M 34 9 L 188 9 L 188 216.175781 L 34 216.175781 Z M 34 9 " clip-rule="nonzero"/></clipPath></defs><g clip-path="url(#id1)"><path fill="#000000" d="M 113.59375 216.175781 C 112.871094 216.171875 112.148438 216.101562 111.4375 215.957031 C 110.726562 215.816406 110.035156 215.605469 109.363281 215.324219 C 108.695312 215.046875 108.058594 214.703125 107.453125 214.300781 C 106.851562 213.894531 106.292969 213.4375 105.777344 212.921875 C 105.265625 212.410156 104.808594 211.851562 104.402344 211.246094 C 104 210.644531 103.660156 210.007812 103.378906 209.335938 C 103.101562 208.664062 102.890625 207.972656 102.746094 207.261719 C 102.605469 206.546875 102.53125 205.828125 102.53125 205.101562 L 102.53125 160.097656 C 98.285156 159.652344 94.109375 158.855469 90 157.707031 C 85.886719 156.558594 81.902344 155.070312 78.046875 153.246094 C 74.1875 151.421875 70.507812 149.285156 67.011719 146.839844 C 63.511719 144.394531 60.246094 141.671875 57.207031 138.671875 C 54.566406 136.105469 52.125 133.359375 49.882812 130.441406 C 47.640625 127.523438 45.617188 124.457031 43.816406 121.242188 C 42.015625 118.03125 40.457031 114.707031 39.136719 111.269531 C 37.816406 107.832031 36.75 104.316406 35.9375 100.722656 C 35.863281 100.40625 35.855469 100.082031 35.914062 99.761719 C 35.96875 99.441406 36.085938 99.140625 36.261719 98.863281 C 36.433594 98.589844 36.65625 98.355469 36.921875 98.167969 C 37.191406 97.980469 37.484375 97.847656 37.800781 97.777344 C 38.121094 97.707031 38.441406 97.699219 38.761719 97.753906 C 39.085938 97.808594 39.382812 97.925781 39.660156 98.101562 C 39.9375 98.273438 40.167969 98.496094 40.359375 98.761719 C 40.546875 99.03125 40.675781 99.324219 40.746094 99.640625 C 41.507812 103.003906 42.507812 106.292969 43.742188 109.507812 C 44.976562 112.722656 46.4375 115.832031 48.125 118.839844 C 49.808594 121.84375 51.703125 124.710938 53.800781 127.441406 C 55.902344 130.171875 58.183594 132.738281 60.65625 135.136719 C 63.625 138.070312 66.828125 140.722656 70.265625 143.089844 C 73.703125 145.457031 77.320312 147.503906 81.121094 149.230469 C 84.917969 150.957031 88.839844 152.335938 92.882812 153.371094 C 96.925781 154.40625 101.027344 155.074219 105.1875 155.382812 C 105.5 155.410156 105.792969 155.488281 106.074219 155.625 C 106.351562 155.761719 106.597656 155.941406 106.808594 156.171875 C 107.019531 156.402344 107.179688 156.660156 107.292969 156.949219 C 107.40625 157.238281 107.460938 157.539062 107.460938 157.851562 L 107.460938 205.101562 C 107.449219 205.511719 107.480469 205.917969 107.550781 206.324219 C 107.621094 206.726562 107.730469 207.117188 107.882812 207.5 C 108.03125 207.882812 108.214844 208.246094 108.4375 208.589844 C 108.660156 208.933594 108.914062 209.253906 109.199219 209.546875 C 109.484375 209.839844 109.796875 210.101562 110.136719 210.332031 C 110.472656 210.5625 110.832031 210.757812 111.207031 210.917969 C 111.585938 211.078125 111.976562 211.195312 112.375 211.277344 C 112.777344 211.359375 113.183594 211.398438 113.59375 211.398438 C 114.003906 211.398438 114.40625 211.359375 114.808594 211.277344 C 115.210938 211.195312 115.601562 211.078125 115.976562 210.917969 C 116.355469 210.757812 116.710938 210.5625 117.050781 210.332031 C 117.390625 210.101562 117.699219 209.839844 117.988281 209.546875 C 118.273438 209.253906 118.527344 208.933594 118.75 208.589844 C 118.96875 208.246094 119.15625 207.882812 119.304688 207.5 C 119.453125 207.117188 119.566406 206.726562 119.636719 206.324219 C 119.707031 205.917969 119.738281 205.511719 119.726562 205.101562 L 119.726562 157.214844 C 119.726562 156.917969 119.777344 156.632812 119.878906 156.355469 C 119.980469 156.082031 120.128906 155.832031 120.320312 155.605469 C 120.511719 155.382812 120.738281 155.199219 120.996094 155.058594 C 121.25 154.914062 121.527344 154.820312 121.816406 154.777344 C 123.1875 154.5625 124.554688 154.3125 125.910156 154.023438 C 127.269531 153.730469 128.617188 153.402344 129.957031 153.03125 C 131.292969 152.664062 132.621094 152.253906 133.9375 151.808594 C 135.25 151.363281 136.550781 150.878906 137.839844 150.359375 C 139.125 149.839844 140.398438 149.28125 141.652344 148.683594 C 142.90625 148.089844 144.144531 147.460938 145.359375 146.792969 C 146.578125 146.125 147.777344 145.425781 148.953125 144.6875 C 150.132812 143.953125 151.289062 143.183594 152.421875 142.382812 C 153.554688 141.578125 154.664062 140.742188 155.746094 139.875 C 156.832031 139.007812 157.890625 138.113281 158.921875 137.183594 C 159.957031 136.253906 160.960938 135.296875 161.9375 134.3125 C 162.917969 133.324219 163.863281 132.308594 164.785156 131.269531 C 165.703125 130.226562 166.589844 129.160156 167.445312 128.066406 C 168.304688 126.972656 169.128906 125.855469 169.921875 124.714844 C 170.714844 123.574219 171.472656 122.410156 172.195312 121.226562 C 172.921875 120.042969 173.613281 118.835938 174.269531 117.613281 C 174.921875 116.386719 175.542969 115.144531 176.125 113.882812 C 176.710938 112.625 177.257812 111.347656 177.765625 110.054688 C 178.273438 108.761719 178.746094 107.457031 179.179688 106.136719 C 179.613281 104.816406 180.011719 103.484375 180.367188 102.144531 C 180.722656 100.800781 181.042969 99.449219 181.320312 98.089844 C 181.601562 96.726562 181.839844 95.359375 182.039062 93.984375 C 182.238281 92.609375 182.398438 91.230469 182.519531 89.847656 C 182.636719 88.460938 182.71875 87.074219 182.757812 85.6875 C 182.796875 84.296875 182.796875 82.910156 182.753906 81.519531 C 182.714844 80.132812 182.632812 78.746094 182.511719 77.363281 C 182.390625 75.976562 182.230469 74.597656 182.03125 73.222656 C 181.828125 71.847656 181.589844 70.480469 181.308594 69.121094 C 181.027344 67.757812 180.710938 66.40625 180.351562 65.066406 C 179.992188 63.722656 179.597656 62.394531 179.160156 61.074219 C 178.726562 59.753906 178.253906 58.449219 177.742188 57.15625 C 177.234375 55.863281 176.683594 54.589844 176.101562 53.328125 C 173.777344 48.355469 170.925781 43.707031 167.546875 39.382812 C 164.164062 35.058594 160.34375 31.167969 156.082031 27.710938 C 146.21875 19.742188 133.578125 15.175781 120.425781 14.867188 L 117.957031 14.808594 C 117.273438 14.792969 116.59375 14.84375 115.921875 14.964844 C 115.246094 15.085938 114.589844 15.269531 113.953125 15.519531 C 113.316406 15.773438 112.707031 16.082031 112.132812 16.457031 C 111.558594 16.828125 111.027344 17.253906 110.535156 17.734375 C 110.046875 18.210938 109.609375 18.734375 109.222656 19.300781 C 108.835938 19.867188 108.511719 20.464844 108.246094 21.097656 C 107.980469 21.730469 107.777344 22.382812 107.644531 23.054688 C 107.507812 23.726562 107.441406 24.402344 107.441406 25.089844 L 107.441406 140.570312 C 107.441406 140.917969 107.371094 141.253906 107.230469 141.574219 C 107.089844 141.894531 106.890625 142.171875 106.632812 142.40625 C 106.375 142.644531 106.078125 142.816406 105.746094 142.925781 C 105.414062 143.035156 105.074219 143.070312 104.726562 143.035156 C 102.914062 142.847656 101.109375 142.578125 99.320312 142.222656 C 97.53125 141.867188 95.757812 141.433594 94.007812 140.917969 C 92.257812 140.402344 90.535156 139.804688 88.839844 139.128906 C 87.144531 138.457031 85.480469 137.703125 83.855469 136.875 C 82.226562 136.050781 80.640625 135.148438 79.097656 134.175781 C 77.554688 133.203125 76.058594 132.160156 74.609375 131.050781 C 73.160156 129.941406 71.765625 128.765625 70.421875 127.527344 C 69.082031 126.289062 67.800781 124.992188 66.578125 123.636719 C 65.355469 122.28125 64.199219 120.871094 63.105469 119.410156 C 62.015625 117.945312 60.992188 116.4375 60.035156 114.882812 C 59.082031 113.324219 58.199219 111.726562 57.394531 110.089844 C 56.585938 108.453125 55.855469 106.785156 55.199219 105.078125 C 54.542969 103.375 53.96875 101.644531 53.472656 99.886719 C 52.976562 98.128906 52.5625 96.355469 52.230469 94.558594 C 51.898438 92.761719 51.648438 90.957031 51.480469 89.136719 C 51.3125 87.320312 51.230469 85.5 51.230469 83.671875 C 51.222656 82.09375 51.28125 80.519531 51.402344 78.945312 C 51.519531 77.371094 51.703125 75.804688 51.945312 74.246094 C 52.191406 72.6875 52.496094 71.140625 52.867188 69.605469 C 53.234375 68.070312 53.660156 66.554688 54.148438 65.054688 C 54.636719 63.550781 55.1875 62.074219 55.792969 60.617188 C 56.398438 59.160156 57.0625 57.730469 57.78125 56.324219 C 58.5 54.921875 59.277344 53.546875 60.105469 52.207031 C 60.9375 50.863281 61.816406 49.558594 62.75 48.285156 C 63.683594 47.015625 64.667969 45.78125 65.699219 44.585938 C 66.730469 43.394531 67.808594 42.242188 68.933594 41.136719 C 70.054688 40.027344 71.222656 38.96875 72.429688 37.953125 C 73.636719 36.9375 74.882812 35.972656 76.167969 35.058594 C 77.453125 34.144531 78.773438 33.28125 80.125 32.46875 C 81.480469 31.660156 82.863281 30.90625 84.277344 30.207031 C 85.691406 29.503906 87.128906 28.863281 88.59375 28.277344 C 90.058594 27.695312 91.542969 27.167969 93.050781 26.703125 C 93.429688 26.578125 93.792969 26.417969 94.140625 26.222656 C 94.492188 26.027344 94.816406 25.800781 95.121094 25.539062 C 95.425781 25.28125 95.703125 24.996094 95.949219 24.683594 C 96.199219 24.367188 96.414062 24.035156 96.597656 23.679688 C 96.78125 23.324219 96.925781 22.953125 97.039062 22.570312 C 97.148438 22.1875 97.222656 21.796875 97.253906 21.398438 C 97.289062 21 97.285156 20.601562 97.242188 20.203125 C 97.199219 19.808594 97.117188 19.417969 97 19.035156 C 96.878906 18.65625 96.726562 18.289062 96.535156 17.9375 C 96.34375 17.585938 96.121094 17.257812 95.867188 16.949219 C 95.613281 16.640625 95.332031 16.363281 95.019531 16.109375 C 94.710938 15.855469 94.378906 15.636719 94.027344 15.449219 C 93.675781 15.261719 93.308594 15.109375 92.925781 14.992188 C 92.542969 14.875 92.152344 14.796875 91.757812 14.757812 C 91.359375 14.71875 90.960938 14.71875 90.5625 14.753906 C 90.167969 14.792969 89.777344 14.867188 89.394531 14.984375 C 85.804688 16.117188 82.328125 17.523438 78.960938 19.203125 C 75.589844 20.878906 72.371094 22.808594 69.304688 24.984375 C 66.234375 27.164062 63.355469 29.566406 60.660156 32.195312 C 57.964844 34.824219 55.492188 37.644531 53.234375 40.65625 C 51.0625 43.5625 49.121094 46.613281 47.410156 49.816406 C 45.703125 53.015625 44.246094 56.328125 43.042969 59.753906 C 41.835938 63.175781 40.898438 66.671875 40.226562 70.238281 C 39.554688 73.804688 39.15625 77.402344 39.035156 81.027344 C 39.023438 81.355469 38.949219 81.667969 38.8125 81.964844 C 38.679688 82.265625 38.492188 82.523438 38.25 82.746094 C 38.011719 82.972656 37.738281 83.140625 37.433594 83.253906 C 37.125 83.371094 36.808594 83.421875 36.484375 83.410156 C 36.15625 83.398438 35.84375 83.324219 35.546875 83.1875 C 35.25 83.054688 34.988281 82.867188 34.765625 82.625 C 34.542969 82.386719 34.371094 82.113281 34.257812 81.808594 C 34.144531 81.5 34.09375 81.183594 34.105469 80.855469 C 34.234375 76.980469 34.660156 73.132812 35.378906 69.320312 C 36.09375 65.507812 37.097656 61.773438 38.386719 58.113281 C 39.671875 54.453125 41.230469 50.914062 43.058594 47.492188 C 44.886719 44.070312 46.960938 40.808594 49.285156 37.703125 C 51.695312 34.484375 54.339844 31.472656 57.21875 28.664062 C 60.09375 25.855469 63.171875 23.289062 66.449219 20.960938 C 69.726562 18.632812 73.167969 16.574219 76.765625 14.78125 C 80.363281 12.992188 84.078125 11.488281 87.910156 10.273438 C 88.601562 10.066406 89.304688 9.929688 90.023438 9.859375 C 90.742188 9.789062 91.460938 9.789062 92.175781 9.859375 C 92.894531 9.929688 93.597656 10.070312 94.289062 10.277344 C 94.980469 10.488281 95.644531 10.761719 96.28125 11.097656 C 96.917969 11.4375 97.515625 11.835938 98.074219 12.289062 C 98.636719 12.746094 99.144531 13.25 99.605469 13.804688 C 100.066406 14.359375 100.46875 14.957031 100.816406 15.589844 C 101.160156 16.222656 101.441406 16.886719 101.65625 17.574219 C 101.871094 18.261719 102.015625 18.964844 102.09375 19.683594 C 102.171875 20.402344 102.179688 21.121094 102.117188 21.839844 C 102.054688 22.558594 101.925781 23.261719 101.722656 23.957031 C 101.523438 24.648438 101.257812 25.316406 100.925781 25.957031 C 100.597656 26.601562 100.207031 27.203125 99.757812 27.769531 C 99.308594 28.332031 98.808594 28.851562 98.261719 29.316406 C 97.710938 29.785156 97.121094 30.195312 96.492188 30.546875 C 95.859375 30.898438 95.203125 31.1875 94.515625 31.410156 C 93.394531 31.761719 92.285156 32.148438 91.183594 32.574219 C 90.085938 32.996094 89.003906 33.457031 87.933594 33.949219 C 86.867188 34.445312 85.816406 34.972656 84.78125 35.535156 C 83.746094 36.097656 82.730469 36.691406 81.734375 37.320312 C 80.738281 37.945312 79.761719 38.605469 78.808594 39.296875 C 77.855469 39.988281 76.925781 40.707031 76.015625 41.457031 C 75.109375 42.207031 74.226562 42.988281 73.371094 43.796875 C 72.515625 44.601562 71.683594 45.4375 70.878906 46.296875 C 70.078125 47.160156 69.304688 48.046875 68.558594 48.957031 C 67.8125 49.867188 67.09375 50.800781 66.410156 51.761719 C 65.722656 52.71875 65.070312 53.695312 64.445312 54.695312 C 63.824219 55.695312 63.234375 56.714844 62.675781 57.753906 C 62.121094 58.789062 61.597656 59.84375 61.109375 60.917969 C 60.621094 61.988281 60.167969 63.074219 59.746094 64.175781 C 59.328125 65.277344 58.945312 66.390625 58.597656 67.515625 C 58.25 68.640625 57.941406 69.777344 57.667969 70.921875 C 57.394531 72.066406 57.15625 73.21875 56.957031 74.382812 C 56.757812 75.542969 56.597656 76.707031 56.472656 77.878906 C 56.347656 79.050781 56.261719 80.226562 56.214844 81.402344 C 56.164062 82.578125 56.15625 83.757812 56.183594 84.933594 C 56.210938 86.113281 56.277344 87.289062 56.378906 88.460938 C 56.480469 89.632812 56.625 90.804688 56.800781 91.96875 C 56.980469 93.132812 57.195312 94.289062 57.449219 95.441406 C 57.703125 96.589844 57.992188 97.730469 58.320312 98.863281 C 58.648438 99.992188 59.011719 101.113281 59.410156 102.222656 C 59.808594 103.332031 60.242188 104.425781 60.714844 105.503906 C 61.183594 106.585938 61.6875 107.648438 62.226562 108.695312 C 62.765625 109.742188 63.335938 110.773438 63.941406 111.78125 C 64.546875 112.792969 65.183594 113.785156 65.851562 114.753906 C 66.519531 115.722656 67.21875 116.667969 67.949219 117.59375 C 68.679688 118.519531 69.4375 119.417969 70.226562 120.292969 C 71.011719 121.167969 71.828125 122.019531 72.671875 122.839844 C 74.6875 124.832031 76.851562 126.652344 79.15625 128.304688 C 81.460938 129.953125 83.882812 131.414062 86.417969 132.683594 C 88.949219 133.949219 91.570312 135.011719 94.273438 135.871094 C 96.972656 136.726562 99.726562 137.363281 102.53125 137.785156 L 102.53125 25.085938 C 102.53125 24.578125 102.554688 24.074219 102.605469 23.570312 C 102.65625 23.066406 102.730469 22.566406 102.832031 22.070312 C 102.929688 21.574219 103.054688 21.085938 103.203125 20.601562 C 103.351562 20.121094 103.523438 19.644531 103.722656 19.179688 C 103.917969 18.710938 104.136719 18.257812 104.378906 17.8125 C 104.621094 17.367188 104.882812 16.9375 105.167969 16.519531 C 105.453125 16.097656 105.757812 15.695312 106.082031 15.308594 C 106.40625 14.921875 106.75 14.550781 107.109375 14.195312 C 107.472656 13.84375 107.851562 13.507812 108.246094 13.191406 C 108.640625 12.878906 109.050781 12.582031 109.476562 12.308594 C 109.902344 12.03125 110.339844 11.78125 110.789062 11.546875 C 111.238281 11.316406 111.699219 11.109375 112.167969 10.921875 C 112.640625 10.738281 113.117188 10.578125 113.605469 10.441406 C 114.089844 10.300781 114.582031 10.1875 115.082031 10.101562 C 115.578125 10.011719 116.078125 9.949219 116.585938 9.910156 C 117.089844 9.875 117.59375 9.859375 118.097656 9.871094 L 120.5625 9.929688 C 134.800781 10.265625 148.503906 15.21875 159.1875 23.871094 C 163.738281 27.566406 167.816406 31.722656 171.425781 36.34375 C 175.03125 40.964844 178.074219 45.933594 180.554688 51.242188 C 181.167969 52.570312 181.742188 53.914062 182.277344 55.273438 C 182.8125 56.632812 183.308594 58.007812 183.765625 59.394531 C 184.222656 60.78125 184.640625 62.179688 185.019531 63.59375 C 185.398438 65.003906 185.734375 66.425781 186.035156 67.855469 C 186.332031 69.289062 186.585938 70.726562 186.800781 72.171875 C 187.019531 73.617188 187.191406 75.066406 187.324219 76.523438 C 187.457031 77.976562 187.550781 79.433594 187.601562 80.894531 C 187.648438 82.355469 187.660156 83.816406 187.625 85.277344 C 187.59375 86.738281 187.519531 88.199219 187.402344 89.65625 C 187.285156 91.109375 187.128906 92.5625 186.929688 94.011719 C 186.730469 95.460938 186.492188 96.898438 186.210938 98.335938 C 185.933594 99.769531 185.609375 101.195312 185.25 102.609375 C 184.886719 104.023438 184.488281 105.429688 184.046875 106.824219 C 183.605469 108.214844 183.125 109.59375 182.605469 110.960938 C 182.082031 112.328125 181.527344 113.675781 180.929688 115.011719 C 180.332031 116.34375 179.699219 117.660156 179.027344 118.957031 C 178.355469 120.253906 177.648438 121.53125 176.902344 122.789062 C 176.160156 124.046875 175.382812 125.285156 174.566406 126.496094 C 173.753906 127.710938 172.90625 128.898438 172.023438 130.0625 C 171.140625 131.226562 170.226562 132.367188 169.28125 133.480469 C 168.332031 134.59375 167.355469 135.675781 166.347656 136.734375 C 165.339844 137.792969 164.300781 138.820312 163.234375 139.816406 C 162.167969 140.816406 161.074219 141.78125 159.953125 142.71875 C 158.832031 143.652344 157.683594 144.558594 156.507812 145.425781 C 155.335938 146.296875 154.140625 147.132812 152.917969 147.9375 C 151.699219 148.738281 150.457031 149.503906 149.191406 150.238281 C 147.925781 150.96875 146.644531 151.664062 145.339844 152.320312 C 144.035156 152.980469 142.714844 153.601562 141.375 154.183594 C 140.035156 154.765625 138.679688 155.3125 137.3125 155.816406 C 135.941406 156.324219 134.558594 156.789062 133.160156 157.21875 C 131.765625 157.644531 130.355469 158.03125 128.9375 158.378906 C 127.519531 158.726562 126.09375 159.03125 124.65625 159.296875 L 124.65625 205.101562 C 124.65625 205.828125 124.582031 206.546875 124.4375 207.261719 C 124.296875 207.972656 124.085938 208.664062 123.808594 209.335938 C 123.527344 210.003906 123.1875 210.640625 122.785156 211.246094 C 122.378906 211.851562 121.921875 212.410156 121.410156 212.921875 C 120.894531 213.4375 120.335938 213.894531 119.734375 214.300781 C 119.132812 214.703125 118.496094 215.042969 117.824219 215.324219 C 117.152344 215.601562 116.464844 215.8125 115.75 215.957031 C 115.039062 216.101562 114.320312 216.171875 113.59375 216.175781 Z M 122.195312 142.210938 C 121.867188 142.210938 121.554688 142.148438 121.25 142.023438 C 120.949219 141.898438 120.683594 141.71875 120.453125 141.488281 C 120.222656 141.257812 120.042969 140.988281 119.917969 140.6875 C 119.792969 140.386719 119.730469 140.070312 119.730469 139.742188 L 119.730469 29.703125 C 119.730469 29.359375 119.796875 29.03125 119.933594 28.71875 C 120.066406 28.402344 120.261719 28.128906 120.511719 27.894531 C 120.761719 27.664062 121.046875 27.488281 121.367188 27.371094 C 121.691406 27.257812 122.023438 27.210938 122.363281 27.234375 C 131.992188 27.902344 141.226562 31.457031 148.378906 37.246094 C 149.152344 37.875 149.90625 38.519531 150.648438 39.179688 C 151.390625 39.84375 152.113281 40.527344 152.820312 41.226562 C 153.527344 41.925781 154.21875 42.644531 154.886719 43.375 C 155.558594 44.109375 156.210938 44.863281 156.84375 45.628906 C 157.480469 46.394531 158.09375 47.175781 158.6875 47.976562 C 159.28125 48.773438 159.855469 49.585938 160.410156 50.410156 C 160.964844 51.238281 161.496094 52.078125 162.007812 52.929688 C 162.519531 53.78125 163.011719 54.648438 163.480469 55.527344 C 163.949219 56.402344 164.394531 57.292969 164.820312 58.191406 C 165.242188 59.089844 165.644531 60 166.023438 60.921875 C 166.402344 61.839844 166.757812 62.769531 167.089844 63.707031 C 167.421875 64.644531 167.730469 65.589844 168.015625 66.546875 C 168.300781 67.5 168.5625 68.457031 168.800781 69.425781 C 169.035156 70.390625 169.25 71.363281 169.4375 72.339844 C 169.625 73.316406 169.789062 74.296875 169.929688 75.28125 C 170.070312 76.269531 170.183594 77.253906 170.273438 78.246094 C 170.363281 79.238281 170.429688 80.230469 170.46875 81.222656 C 170.507812 82.21875 170.523438 83.214844 170.515625 84.207031 C 170.507812 85.203125 170.472656 86.195312 170.414062 87.191406 C 170.355469 88.183594 170.269531 89.175781 170.160156 90.164062 C 170.050781 91.152344 169.917969 92.136719 169.761719 93.121094 C 169.605469 94.101562 169.421875 95.082031 169.214844 96.054688 C 169.007812 97.027344 168.777344 97.996094 168.523438 98.957031 C 168.265625 99.917969 167.988281 100.875 167.683594 101.820312 C 167.382812 102.769531 167.054688 103.707031 166.707031 104.640625 C 166.355469 105.570312 165.984375 106.492188 165.585938 107.40625 C 165.191406 108.320312 164.773438 109.222656 164.332031 110.113281 C 163.890625 111.003906 163.425781 111.882812 162.941406 112.753906 C 162.457031 113.621094 161.949219 114.476562 161.421875 115.320312 C 160.894531 116.164062 160.347656 116.992188 159.777344 117.808594 C 159.207031 118.625 158.617188 119.425781 158.007812 120.210938 C 157.398438 121 156.769531 121.769531 156.121094 122.523438 C 153.972656 125.027344 151.628906 127.332031 149.097656 129.449219 C 146.566406 131.5625 143.878906 133.457031 141.035156 135.125 C 138.1875 136.796875 135.226562 138.222656 132.148438 139.40625 C 129.066406 140.585938 125.910156 141.503906 122.679688 142.164062 C 122.519531 142.195312 122.359375 142.210938 122.195312 142.210938 Z M 124.660156 32.429688 L 124.660156 136.648438 C 127.097656 136.011719 129.480469 135.210938 131.808594 134.246094 C 134.136719 133.28125 136.386719 132.164062 138.5625 130.886719 C 140.734375 129.609375 142.808594 128.191406 144.789062 126.628906 C 146.765625 125.066406 148.625 123.375 150.367188 121.554688 C 152.113281 119.734375 153.722656 117.800781 155.199219 115.761719 C 156.675781 113.71875 158.007812 111.582031 159.1875 109.355469 C 160.371094 107.128906 161.394531 104.832031 162.261719 102.464844 C 163.125 100.097656 163.824219 97.679688 164.355469 95.214844 C 164.886719 92.75 165.246094 90.261719 165.4375 87.746094 C 165.625 85.234375 165.636719 82.71875 165.480469 80.203125 C 165.320312 77.6875 164.988281 75.191406 164.484375 72.722656 C 163.980469 70.25 163.308594 67.828125 162.472656 65.449219 C 161.632812 63.070312 160.636719 60.761719 159.480469 58.523438 C 158.324219 56.285156 157.015625 54.132812 155.5625 52.074219 C 154.109375 50.015625 152.519531 48.066406 150.796875 46.226562 C 149.074219 44.386719 147.234375 42.671875 145.273438 41.089844 C 142.300781 38.726562 139.0625 36.8125 135.5625 35.339844 C 132.0625 33.867188 128.429688 32.898438 124.660156 32.425781 Z M 37.019531 94.882812 C 36.71875 94.878906 36.425781 94.828125 36.144531 94.71875 C 35.863281 94.609375 35.609375 94.457031 35.386719 94.257812 C 35.160156 94.054688 34.976562 93.820312 34.839844 93.554688 C 34.699219 93.285156 34.613281 93 34.578125 92.703125 C 34.429688 91.46875 34.3125 90.1875 34.226562 88.875 C 34.207031 88.546875 34.246094 88.226562 34.351562 87.917969 C 34.457031 87.609375 34.617188 87.328125 34.835938 87.082031 C 35.050781 86.835938 35.304688 86.640625 35.597656 86.496094 C 35.894531 86.351562 36.203125 86.269531 36.53125 86.246094 C 36.855469 86.226562 37.175781 86.265625 37.484375 86.371094 C 37.796875 86.476562 38.074219 86.636719 38.320312 86.851562 C 38.566406 87.070312 38.761719 87.324219 38.90625 87.617188 C 39.050781 87.910156 39.136719 88.222656 39.15625 88.550781 C 39.238281 89.78125 39.351562 90.980469 39.480469 92.125 C 39.523438 92.453125 39.5 92.777344 39.410156 93.09375 C 39.320312 93.410156 39.175781 93.699219 38.96875 93.957031 C 38.765625 94.21875 38.519531 94.425781 38.230469 94.585938 C 37.945312 94.746094 37.636719 94.84375 37.308594 94.882812 C 37.214844 94.882812 37.117188 94.882812 37.019531 94.882812 Z M 37.019531 94.882812 " fill-opacity="1" fill-rule="nonzero"/></g></svg>