<svg xmlns="http://www.w3.org/2000/svg" xmlns:xlink="http://www.w3.org/1999/xlink" width="100" zoomAndPan="magnify" viewBox="0 0 75 74.999997" height="100" preserveAspectRatio="xMidYMid meet" version="1.0"><defs><clipPath id="id1"><path d="M 13.332031 0 L 50 0 L 50 22 L 13.332031 22 Z M 13.332031 0 " clip-rule="nonzero"/></clipPath><clipPath id="id2"><path d="M 25 0 L 61.332031 0 L 61.332031 22 L 25 22 Z M 25 0 " clip-rule="nonzero"/></clipPath><clipPath id="id3"><path d="M 13.332031 0 L 38 0 L 38 43 L 13.332031 43 Z M 13.332031 0 " clip-rule="nonzero"/></clipPath><clipPath id="id4"><path d="M 25 53 L 61.332031 53 L 61.332031 75 L 25 75 Z M 25 53 " clip-rule="nonzero"/></clipPath><clipPath id="id5"><path d="M 13.332031 53 L 50 53 L 50 75 L 13.332031 75 Z M 13.332031 53 " clip-rule="nonzero"/></clipPath><clipPath id="id6"><path d="M 37 32 L 61.332031 32 L 61.332031 75 L 37 75 Z M 37 32 " clip-rule="nonzero"/></clipPath></defs><g clip-path="url(#id1)"><path fill="#000000" d="M 49.238281 0 L 37.261719 21.429688 L 13.332031 21.429688 L 25.296875 0 L 49.238281 0 " fill-opacity="0.4471" fill-rule="nonzero"/></g><g clip-path="url(#id2)"><path fill="#000000" d="M 37.261719 21.429688 L 61.203125 21.429688 L 49.238281 0 L 25.296875 0 Z M 37.261719 21.429688 " fill-opacity="0.6" fill-rule="nonzero"/></g><g clip-path="url(#id3)"><path fill="#000000" d="M 25.296875 42.851562 L 37.261719 21.429688 L 25.296875 0 L 13.332031 21.429688 Z M 25.296875 42.851562 " fill-opacity="0.8" fill-rule="nonzero"/></g><g clip-path="url(#id4)"><path fill="#000000" d="M 25.414062 75 L 37.390625 53.570312 L 61.332031 53.570312 L 49.355469 75 L 25.414062 75 " fill-opacity="0.4471" fill-rule="nonzero"/></g><g clip-path="url(#id5)"><path fill="#000000" d="M 37.390625 53.570312 L 13.449219 53.570312 L 25.414062 75 L 49.355469 75 Z M 37.390625 53.570312 " fill-opacity="0.6" fill-rule="nonzero"/></g><g clip-path="url(#id6)"><path fill="#000000" d="M 49.355469 32.148438 L 37.390625 53.570312 L 49.355469 75 L 61.332031 53.570312 Z M 49.355469 32.148438 " fill-opacity="0.8" fill-rule="nonzero"/></g></svg>