<svg xmlns="http://www.w3.org/2000/svg" xmlns:xlink="http://www.w3.org/1999/xlink" width="100" zoomAndPan="magnify" viewBox="0 0 75 74.999997" height="100" preserveAspectRatio="xMidYMid meet" version="1.0"><defs><clipPath id="id1"><path d="M 3.890625 30 L 38 30 L 38 59.898438 L 3.890625 59.898438 Z M 3.890625 30 " clip-rule="nonzero"/></clipPath><clipPath id="id2"><path d="M 37 14.898438 L 71.390625 14.898438 L 71.390625 45 L 37 45 Z M 37 14.898438 " clip-rule="nonzero"/></clipPath></defs><g clip-path="url(#id1)"><path fill="#737373" d="M 26.621094 51.277344 L 26.621094 55.347656 L 8.011719 46.78125 L 8.011719 43.476562 L 26.621094 34.90625 L 26.621094 38.980469 L 12.546875 45.089844 L 12.546875 45.167969 Z M 37.671875 30.382812 L 6.554688 30.382812 C 5.085938 30.382812 3.894531 31.5625 3.894531 33.019531 L 3.894531 57.238281 C 3.894531 58.695312 5.085938 59.875 6.554688 59.875 L 29.03125 59.875 L 37.671875 30.382812 " fill-opacity="1" fill-rule="nonzero"/></g><g clip-path="url(#id2)"><path fill="#000000" d="M 67.277344 31.429688 L 48.671875 39.882812 L 48.671875 35.808594 L 63.050781 29.699219 L 63.050781 29.621094 L 48.671875 23.511719 L 48.671875 19.441406 L 67.277344 27.894531 Z M 46.308594 14.914062 L 37.671875 44.40625 L 68.738281 44.40625 C 70.207031 44.40625 71.394531 43.226562 71.394531 41.769531 L 71.394531 17.550781 C 71.394531 16.09375 70.207031 14.914062 68.738281 14.914062 L 46.308594 14.914062 " fill-opacity="1" fill-rule="nonzero"/></g></svg>